<svg width="40" height="40" viewBox="0 0 40 40" fill="none" xmlns="http://www.w3.org/2000/svg">
<path d="M39.3983 4.66186C38.82 2.84447 38.0361 1.5432 38.0029 1.48852C37.8744 1.27685 37.6098 1.16674 37.3701 1.22167C37.308 1.23583 35.8278 1.58104 34.1204 2.4331C31.8153 3.583 30.2052 5.11816 29.4633 6.87182C28.8459 8.33227 28.7572 10.1177 29.1953 12.0901C28.2622 11.0488 27.2125 10.1379 26.0683 9.37109C25.7189 8.68139 24.7951 6.98339 23.3508 5.20873C22.8751 4.6245 21.96 5.35766 22.4406 5.94774C23.4138 7.14379 24.1464 8.32006 24.6045 9.12817L19.2626 8.08764L14.1872 1.1704C14.68 1.17724 15.1746 1.22484 15.6667 1.32128C17.2268 1.62646 18.7678 2.4204 20.2477 3.68065C20.8275 4.17455 21.5806 3.27563 21.0083 2.78856C19.3735 1.39647 17.6521 0.515615 15.892 0.171132C13.205 -0.354258 10.0711 0.335439 6.82831 2.16649C4.41134 3.53124 2.79506 5.03026 2.72762 5.09325C2.51139 5.29516 2.47694 5.66186 2.65799 5.8977C2.89499 6.38354 3.79317 8.13622 5.28826 10.0232C6.16958 11.1357 7.09904 12.0879 8.0605 12.8704C7.78733 13.0991 7.52149 13.3384 7.26421 13.5901C5.89006 14.9331 4.83795 16.5173 4.14722 18.2493C3.53662 19.7795 3.20823 21.4258 3.18991 23.1226C3.15961 25.8972 3.96421 28.5732 5.51721 30.8618C7.03429 33.0972 9.15512 34.8135 11.6503 35.8249C12.3486 36.1074 12.7901 35.0222 12.0913 34.739C11.1873 34.3726 10.338 33.9031 9.55461 33.3447C9.65479 32.7895 9.88715 30.7915 8.55894 28.7231C8.373 28.4338 8.92887 27.2976 9.26068 26.6189C9.60324 25.9194 9.95679 25.1963 10.122 24.5154C10.2974 23.792 10.1 23.1848 9.55144 22.7588C9.14877 22.446 8.62174 22.2842 8.15726 22.1414C7.8555 22.0486 7.51343 21.9436 7.39126 21.8418C7.1396 21.6311 6.72862 20.8525 6.39828 20.2273C6.03178 19.5337 5.68287 18.8735 5.32662 18.467C6.12829 16.5647 7.41594 14.8813 9.02856 13.5935C10.5017 14.5962 12.1829 15.2881 13.97 15.4282C11.8976 17.0327 11.2271 19.0818 12.1854 21.05C13.3044 23.3484 15.6078 22.9812 17.6399 22.6577C17.9915 22.6016 18.3553 22.5437 18.7038 22.5002C18.8345 22.4839 18.8738 22.5195 18.9002 22.5427C19.3452 22.9382 19.332 24.8271 19.3224 26.2065C19.3095 28.1145 19.2973 29.9167 20.0085 30.842C20.3714 31.3137 20.8823 31.5549 21.4811 31.5549C21.8401 31.5549 22.23 31.4685 22.639 31.2932C24.4078 30.5364 26.2464 28.2585 25.9659 26.4563C25.7209 24.8806 25.5586 23.8396 25.941 23.0005C26.2946 22.2239 27.1492 21.5049 28.8325 20.5874C29.034 21.4944 29.1357 22.438 29.1252 23.406C29.0893 26.7102 27.7674 29.8027 25.4035 32.1135C22.7615 34.696 19.0483 35.9714 15.3752 35.5669C14.6268 35.4858 14.4975 36.6494 15.2469 36.7319C19.2675 37.1743 23.3325 35.7778 26.2235 32.9514C28.8117 30.4214 30.2587 27.0361 30.298 23.4185C30.3503 18.6218 27.8871 14.3723 24.1376 11.9243C24.9123 11.3723 25.4895 10.895 25.8095 10.6179C27.1766 11.5979 28.3892 12.8052 29.3981 14.2117C31.82 17.5889 32.7805 21.7058 32.1032 25.8049C30.7043 34.2666 22.6772 40.0144 14.2073 38.6162C10.1046 37.9392 6.51165 35.7068 4.0898 32.3296C1.66769 28.9526 0.70721 24.8352 1.38475 20.7363C1.50643 19.9988 0.349991 19.8052 0.227823 20.5454C-0.501031 24.9534 0.532265 29.3809 3.13615 33.0124C5.74053 36.6436 9.6047 39.0444 14.0162 39.7727C14.9388 39.9248 15.8624 40 16.7796 40C20.2468 40 23.6196 38.9243 26.4937 36.8665C30.1287 34.2642 32.5317 30.4038 33.2601 25.9958C33.794 22.7659 33.3808 19.5254 32.0975 16.5952C32.6898 16.4206 33.6977 16.0818 34.8016 15.531C37.1062 14.3811 38.7166 12.8459 39.4582 11.0923C40.2004 9.33813 40.1797 7.11449 39.3983 4.66186ZM5.36083 20.7742C5.79722 21.6008 6.2099 22.3821 6.63871 22.7405C6.94242 22.9941 7.36512 23.124 7.8125 23.2615C8.95868 23.6135 9.09184 23.7864 8.98189 24.2393C8.84702 24.7961 8.52156 25.4612 8.2071 26.104C7.60139 27.3423 7.0294 28.5112 7.57158 29.356C8.34051 30.5532 8.47221 31.7319 8.45901 32.4651C4.96599 29.3179 3.54371 24.3469 4.84479 19.8289C5.0173 20.1243 5.19859 20.4675 5.36083 20.7742ZM33.7343 9.25878L32.0677 5.22314C32.8787 4.46532 33.8196 3.89501 34.621 3.4934C35.3037 3.15111 35.9532 2.89525 36.4741 2.71386L33.7343 9.25878ZM37.5553 3.1682C37.7881 3.6682 38.0581 4.31298 38.2888 5.04174C38.5416 5.84154 38.7738 6.83275 38.82 7.86669L34.9142 9.4768L37.5553 3.1682ZM30.5436 7.32812C30.7165 6.91943 30.9401 6.54052 31.1984 6.19066L33.0956 10.7842L31.3931 14.852C31.1539 14.345 30.8722 13.6789 30.6332 12.9224C30.1536 11.4075 29.749 9.20678 30.5436 7.32812ZM34.3007 14.4707C33.6437 14.8003 33.0167 15.0498 32.5061 15.2297L34.2729 11.0093L38.7701 9.15502C38.7049 9.65844 38.5805 10.1575 38.3779 10.636C37.5836 12.5146 35.7223 13.7585 34.3007 14.4707ZM13.1542 14.1372C12.947 14.0967 12.7425 14.0471 12.5409 13.9907L19.0314 9.23681L24.3758 10.2776C22.4289 11.8103 17.691 15.0254 13.1542 14.1372ZM7.22243 10.4709C5.83435 8.97607 4.81694 7.37768 4.23273 6.35424L11.0338 7.67919L7.22243 10.4709ZM8.42358 2.65282L11.2691 6.531L4.42405 5.19774C5.28582 4.51781 6.70834 3.49706 8.42358 2.65282ZM12.9658 6.86156L9.51601 2.15966C10.5488 1.73559 11.6574 1.40185 12.7938 1.25341L17.5661 7.75732L12.9658 6.86156ZM12.6007 7.98437L17.4647 8.93163L11.2222 13.5037C10.045 12.9604 8.98556 12.1794 8.05855 11.3113L12.6007 7.98437ZM28.5139 19.4272C26.3996 20.5527 25.3644 21.4368 24.8733 22.5151C24.3457 23.6731 24.539 24.916 24.8065 26.6362C24.9646 27.6506 23.7581 29.5395 22.1772 30.2161C21.5923 30.4663 21.1757 30.4368 20.9385 30.1279C20.4725 29.522 20.4852 27.688 20.4952 26.2146C20.5092 24.176 20.5214 22.4155 19.6796 21.6672C19.3769 21.3982 18.9896 21.2844 18.5594 21.3372C18.1907 21.3831 17.8166 21.4426 17.4552 21.5002C15.2994 21.8435 13.9429 21.981 13.2402 20.5373C12.1016 18.1992 14.4064 16.4673 15.4502 15.8313C15.6628 15.7019 15.8599 15.5493 16.0432 15.3794C18.566 15.0781 20.9497 13.9966 23.074 12.6418C25.6209 14.1623 27.5761 16.5686 28.5139 19.4272Z" fill="#2389FF"/>
</svg>
